<?xml version="1.0" encoding="UTF-8" standalone="no"?>
<svg width="78px" height="61px" viewBox="0 0 78 61" version="1.1" xmlns="http://www.w3.org/2000/svg" xmlns:xlink="http://www.w3.org/1999/xlink">
    <!-- Generator: Sketch 44.1 (41455) - http://www.bohemiancoding.com/sketch -->
    <title>Imported Layers</title>
    <desc>Created with Sketch.</desc>
    <defs></defs>
    <g id="Page-1" stroke="none" stroke-width="1" fill="none" fill-rule="evenodd">
        <g id="Weather-@2x" transform="translate(-321.000000, -171.000000)" fill="#FFFFFF">
            <g id="Day-Time-icons" transform="translate(23.000000, 151.000000)">
                <g id="chancesleet" transform="translate(287.000000, 0.000000)">
                    <g id="Imported-Layers" transform="translate(11.000000, 20.000000)">
                        <path d="M60.9874909,13.9959535 C59.8430182,13.9959535 58.7013818,14.1193721 57.5852727,14.3633721 C54.0185455,6.02055814 45.6924,0.455372093 36.6855273,0.455372093 C25.4436,0.455372093 16.0963636,8.45062791 14.2357091,19.5554651 C14.2087636,19.5540465 14.1818182,19.5540465 14.1562909,19.5540465 C6.80585455,19.5540465 0.825381818,25.5944651 0.825381818,33.0166047 C0.825381818,40.4373256 6.80585455,46.474907 14.1562909,46.474907 L60.9874909,46.474907 C69.8525455,46.474907 77.0654182,39.1889535 77.0654182,30.2361395 C77.0654182,21.281907 69.8525455,13.9959535 60.9874909,13.9959535 L60.9874909,13.9959535 Z M73.8319636,30.2361395 C73.8319636,37.3958372 68.0698909,43.2206279 60.9874909,43.2206279 L14.1562909,43.2206279 C8.58850909,43.2206279 4.05883636,38.6427907 4.05883636,33.0166047 C4.05883636,27.3875814 8.58850909,22.8083256 14.1562909,22.8083256 C14.5278545,22.8083256 14.9334545,22.8366977 15.4340727,22.8991163 L17.0763273,23.104814 L17.2422545,21.4478837 C18.2562545,11.3346512 26.6150182,3.70965116 36.6855273,3.70965116 C44.9223273,3.70965116 52.3153091,8.99111628 55.0836,16.8516047 L55.6054909,18.3354651 L57.096,17.8573953 C58.3610182,17.4545116 59.67,17.2502326 60.9874909,17.2502326 C68.0698909,17.2502326 73.8319636,23.0750233 73.8319636,30.2361395 L73.8319636,30.2361395 Z" id="Fill-1"></path>
                        <path d="M46.1806597,56.7990388 C46.1806597,58.4928527 44.8092779,59.8646434 43.117387,59.8646434 C41.4254961,59.8646434 40.0526961,58.4928527 40.0526961,56.7990388 C40.0526961,55.1066434 41.4254961,53.7348527 43.117387,53.7348527 C44.8092779,53.7348527 46.1806597,55.1066434 46.1806597,56.7990388" id="Fill-2"></path>
                        <path d="M66.3581455,55.7823721 C66.3581455,57.476186 64.9853455,58.8479767 63.2934545,58.8479767 C61.6015636,58.8479767 60.2287636,57.476186 60.2287636,55.7823721 C60.2287636,54.0899767 61.6015636,52.718186 63.2934545,52.718186 C64.9853455,52.718186 66.3581455,54.0899767 66.3581455,55.7823721" id="Fill-3"></path>
                        <path d="M25.9442182,57.1116047 C25.9442182,58.8054186 24.5728364,60.1772093 22.8809455,60.1772093 C21.1876364,60.1772093 19.8162545,58.8054186 19.8162545,57.1116047 C19.8162545,55.4192093 21.1876364,54.0474186 22.8809455,54.0474186 C24.5728364,54.0474186 25.9442182,55.4192093 25.9442182,57.1116047" id="Fill-4"></path>
                    </g>
                </g>
            </g>
        </g>
    </g>
</svg>