<?xml version="1.0" encoding="UTF-8" standalone="no"?>
<svg width="78px" height="64px" viewBox="0 0 78 64" version="1.1" xmlns="http://www.w3.org/2000/svg" xmlns:xlink="http://www.w3.org/1999/xlink">
    <!-- Generator: Sketch 44.1 (41455) - http://www.bohemiancoding.com/sketch -->
    <title>Imported Layers</title>
    <desc>Created with Sketch.</desc>
    <defs></defs>
    <g id="Page-1" stroke="none" stroke-width="1" fill="none" fill-rule="evenodd">
        <g id="Weather-@2x" transform="translate(-178.000000, -169.000000)" fill="#fff">
            <g id="Day-Time-icons" transform="translate(23.000000, 151.000000)">
                <g id="chancerain" transform="translate(146.000000, 0.000000)">
                    <g id="Imported-Layers" transform="translate(8.000000, 18.000000)">
                        <path d="M62.3453636,13.9790222 C61.1876545,13.9790222 60.0313818,14.1027556 58.9009636,14.3459556 C55.2870727,5.98328889 46.8556182,0.403911111 37.7318364,0.403911111 C26.3472182,0.403911111 16.8801455,8.41955556 14.9942,19.5512889 L14.9152,19.5512889 C7.47052727,19.5512889 1.41338182,25.6056889 1.41338182,33.0467556 C1.41338182,40.4878222 7.47052727,46.5408 14.9152,46.5408 L62.3453636,46.5408 C71.3240727,46.5408 78.6294182,39.2362667 78.6294182,30.2592 C78.6294182,21.2821333 71.3240727,13.9790222 62.3453636,13.9790222 L62.3453636,13.9790222 Z M75.3545091,30.2592 C75.3545091,37.4385778 69.52,43.2782222 62.3453636,43.2782222 L14.9152,43.2782222 C9.27603636,43.2782222 4.68829091,38.6887111 4.68829091,33.0467556 C4.68829091,27.4033778 9.27603636,22.8124444 14.9152,22.8124444 C15.2915273,22.8124444 15.7023273,22.8423111 16.2079273,22.9034667 L17.8726727,23.1111111 L18.0392909,21.4499556 C19.0677273,11.3109333 27.5336545,3.66506667 37.7318364,3.66506667 C46.0756727,3.66506667 53.5634364,8.96 56.3657818,16.8419556 L56.8958,18.3296 L58.4054182,17.8503111 C59.6866545,17.4464 61.0124182,17.2416 62.3453636,17.2416 C69.52,17.2416 75.3545091,23.0812444 75.3545091,30.2592 L75.3545091,30.2592 Z" id="Fill-1"></path>
                        <path fill="#6ccbe4" d="M15.1435818,55.5192889 C16.5224909,58.0124444 17.9014,60.5041778 19.2817455,62.9973333 C20.2412364,64.7324444 22.9214909,63.1836444 21.9605636,61.4471111 C20.5816545,58.9539556 19.2027455,56.4608 17.8224,53.9676444 C16.8629091,52.2325333 14.1826545,53.7813333 15.1435818,55.5192889" id="Fill-2"></path>
                        <path fill="#6ccbe4" d="M30.5169818,55.5192889 C31.8958909,58.0124444 33.2748,60.5041778 34.6537091,62.9973333 C35.6146364,64.7324444 38.2948909,63.1836444 37.3339636,61.4471111 C35.9550545,58.9539556 34.5761455,56.4608 33.1958,53.9676444 C32.2363091,52.2325333 29.5546182,53.7813333 30.5169818,55.5192889" id="Fill-3"></path>
                        <path fill="#6ccbe4" d="M46.6746364,55.5192889 C48.0549818,58.0124444 49.4338909,60.5041778 50.8128,62.9973333 C51.7722909,64.7324444 54.4539818,63.1836444 53.4930545,61.4471111 C52.1141455,58.9539556 50.7338,56.4608 49.3548909,53.9676444 C48.3954,52.2325333 45.7137091,53.7813333 46.6746364,55.5192889" id="Fill-4"></path>
                        <path fill="#6ccbe4" d="M62.2907818,55.5192889 C63.6696909,58.0124444 65.0500364,60.5041778 66.4289455,62.9973333 C67.3884364,64.7324444 70.0701273,63.1836444 69.1092,61.4471111 C67.7288545,58.9539556 66.3499455,56.4608 64.9710364,53.9676444 C64.0101091,52.2325333 61.3298545,53.7813333 62.2907818,55.5192889" id="Fill-5"></path>
                    </g>
                </g>
            </g>
        </g>
    </g>
</svg>
