<?xml version="1.0" encoding="UTF-8" standalone="no"?>
<svg width="95px" height="47px" viewBox="0 0 95 47" version="1.1" xmlns="http://www.w3.org/2000/svg" xmlns:xlink="http://www.w3.org/1999/xlink">
    <!-- Generator: Sketch 44.1 (41455) - http://www.bohemiancoding.com/sketch -->
    <title>Imported Layers Copy 2</title>
    <desc>Created with Sketch.</desc>
    <defs></defs>
    <g id="Page-1" stroke="none" stroke-width="1" fill="none" fill-rule="evenodd">
        <g id="Weather-@2x" transform="translate(-893.000000, -178.000000)" fill="pink">
            <g id="Day-Time-icons" transform="translate(23.000000, 151.000000)">
                <g id="cloudy" transform="translate(868.000000, 0.000000)">
                    <g id="Imported-Layers-Copy-2" transform="translate(2.000000, 27.000000)">
                        <path  d="M17.0510769,33.229 L10.4196923,33.229 C6.09673846,33.229 2.58018462,29.6951875 2.58018462,25.350625 C2.58018462,21.0045938 6.09673846,17.4693125 10.4196923,17.4693125 C10.7076923,17.4693125 11.0237538,17.4928125 11.4121846,17.5398125 L12.6882462,17.6984375 L12.8152615,16.420625 C13.6039385,8.61275 20.0935385,2.726 27.9138462,2.726 C31.3092923,2.726 34.5142154,3.88484375 37.1017846,5.87059375 C37.6600615,5.23903125 38.2449231,4.64125 38.8622769,4.08459375 C35.7902769,1.64646875 31.9428923,0.2144375 27.9138462,0.2144375 C19.1837538,0.2144375 11.9261538,6.386125 10.4817231,14.9592187 L10.4196923,14.9592187 C4.71286154,14.9592187 0.0694153846,19.6210312 0.0694153846,25.350625 C0.0694153846,31.07875 4.71286154,35.7405625 10.4196923,35.7405625 L17.1101538,35.7405625 C17.0510769,35.220625 17.0097231,34.6933438 17.0097231,34.1557813 C17.0097231,33.8429375 17.0304,33.5359688 17.0510769,33.229" id="Fill-1"></path>
                        <path d="M78.9312,14.9841875 C77.8176,14.9841875 76.7069538,15.1031563 75.6214154,15.339625 C72.1491692,7.267375 64.0467692,1.8829375 55.2797538,1.8829375 C44.3401846,1.8829375 35.2423385,9.61884375 33.4316308,20.36275 L33.3548308,20.36275 C26.2006154,20.36275 20.3815385,26.2054375 20.3815385,33.3861562 C20.3815385,40.566875 26.2006154,46.4080937 33.3548308,46.4080937 L78.9312,46.4080937 C87.5593846,46.4080937 94.5792,39.3595625 94.5792,30.696875 C94.5792,22.0327188 87.5593846,14.9841875 78.9312,14.9841875 L78.9312,14.9841875 Z M91.4318769,30.696875 C91.4318769,37.6249687 85.824,43.2605625 78.9312,43.2605625 L33.3548308,43.2605625 C27.936,43.2605625 23.5273846,38.8322812 23.5273846,33.3861562 C23.5273846,27.9400312 27.936,23.5102812 33.3548308,23.5102812 C33.7152,23.5102812 34.1110154,23.5381875 34.5984,23.5984062 L36.1964308,23.7966875 L36.3574154,22.1942812 C37.3454769,12.4094687 45.4803692,5.03046875 55.2797538,5.03046875 C63.2964923,5.03046875 70.4920615,10.1417188 73.1859692,17.7469062 L73.6940308,19.1833437 L75.1443692,18.7206875 C76.3761231,18.33 77.6492308,18.1331875 78.9312,18.1331875 C85.824,18.1331875 91.4318769,23.7687812 91.4318769,30.696875 L91.4318769,30.696875 Z" id="Fill-2"></path>
                    </g>
                </g>
            </g>
        </g>
    </g>
</svg>
