<?xml version="1.0" encoding="UTF-8" standalone="no"?>
<svg width="63px" height="72px" viewBox="0 0 63 72" version="1.1" xmlns="http://www.w3.org/2000/svg" xmlns:xlink="http://www.w3.org/1999/xlink">
    <!-- Generator: Sketch 44.1 (41455) - http://www.bohemiancoding.com/sketch -->
    <title>Fill 1</title>
    <desc>Created with Sketch.</desc>
    <defs></defs>
    <g id="Page-1" stroke="none" stroke-width="1" fill="none" fill-rule="evenodd">
        <g id="Weather-@2x" transform="translate(-42.000000, -165.000000)" fill="#FFFFFF">
            <g id="Day-Time-icons" transform="translate(23.000000, 151.000000)">
                <g id="chanceflurries">
                    <polyline id="Fill-1" points="77.031295 57.4068789 76.6099488 54.4045671 63.7914847 56.2759705 53.4740681 50.2035892 63.7898948 44.1328211 76.6099488 46.0042245 77.031295 43.0035259 67.962017 41.6774108 82 33.4158101 80.5133635 30.7893923 66.4737905 39.0526062 69.8843096 30.3812328 67.1225046 29.2535509 62.3032582 41.5064032 52.2259294 47.436816 52.2259294 35.4356352 60.225147 25.0541862 57.8862782 23.1795563 52.2259294 30.5264278 52.2259294 14 49.2510663 14 49.2510663 30.5264278 43.5891275 23.1795563 41.2518487 25.0541862 49.2510663 35.4356352 49.2510663 47.7175266 38.6967418 41.5064032 33.8759054 29.2535509 31.1141004 30.382846 34.5246195 39.0526062 20.4866365 30.7893923 19 33.4158101 33.037983 41.6774108 23.9671151 43.0035259 24.3900512 46.0042245 37.2085153 44.1328211 47.5259319 50.2035892 37.2069253 56.2759705 24.3900512 54.4045671 23.9671151 57.4068789 33.037983 58.7313808 19 66.9929814 20.4866365 69.6193993 34.5262095 61.3561854 31.1141004 70.0275588 33.8759054 71.1552407 38.6951518 58.9023883 49.2510663 52.691265 49.2510663 64.924758 41.2518487 75.3094336 43.5907175 77.180837 49.2510663 69.8355787 49.2510663 85.3940392 52.2259294 85.3940392 52.2259294 69.8355787 57.8862782 77.180837 60.225147 75.3094336 52.2259294 64.9263713 52.2259294 52.9719755 62.3032582 58.9023883 67.1225046 71.1552407 69.8843096 70.0275588 66.4737905 61.3561854 80.5133635 69.6193993 82 66.9929814 67.962017 58.7313808 77.031295 57.4068789"></polyline>
                </g>
            </g>
        </g>
    </g>
</svg>