<?xml version="1.0" encoding="UTF-8" standalone="no"?>
<svg width="79px" height="80px" viewBox="0 0 79 80" version="1.1" xmlns="http://www.w3.org/2000/svg" xmlns:xlink="http://www.w3.org/1999/xlink">
    <!-- Generator: Sketch 44.1 (41455) - http://www.bohemiancoding.com/sketch -->
    <title>Imported Layers</title>
    <desc>Created with Sketch.</desc>
    <defs></defs>
    <g id="Page-1" stroke="none" stroke-width="1" fill="none" fill-rule="evenodd">
        <g id="Weather-@2x" transform="translate(-1192.000000, -161.000000)" fill="#FFFFFF">
            <g id="Day-Time-icons" transform="translate(23.000000, 151.000000)">
                <g id="fog" transform="translate(1158.000000, 0.000000)">
                    <g id="Imported-Layers" transform="translate(11.000000, 10.000000)">
                        <path fill="#adabab" d="M4.59201467,56.8071429 L76.3504997,56.8071429 C77.3829209,56.8071429 78.2276291,56.0146526 78.2276291,55.0444228 C78.2276291,54.0758236 77.3829209,53.2833333 76.3504997,53.2833333 L4.59201467,53.2833333 C3.5595935,53.2833333 2.71488528,54.0758236 2.71488528,55.0444228 C2.71488528,56.0146526 3.5595935,56.8071429 4.59201467,56.8071429" id="Fill-1"></path>
                        <path fill="#adabab" d="M21.3054185,68.1921429 L76.3504997,68.1921429 C77.3829209,68.1921429 78.2276291,67.3996526 78.2276291,66.4294228 C78.2276291,65.4608236 77.3829209,64.6683333 76.3504997,64.6683333 L21.3054185,64.6683333 C20.2729974,64.6683333 19.4265511,65.4608236 19.4265511,66.4294228 C19.4265511,67.3996526 20.2729974,68.1921429 21.3054185,68.1921429" id="Fill-2"></path>
                        <path  fill="#ededed" d="M61.7488664,13.68 C60.5756606,13.68 59.4059309,13.8016667 58.2622724,14.04 C54.6053463,5.84333333 46.0713599,0.375 36.8386642,0.375 C25.3169136,0.375 15.7348633,8.23166667 13.8281865,19.1416667 L13.7464966,19.1416667 C6.21364589,19.1416667 0.0834279728,25.075 0.0834279728,32.3683333 C0.0834279728,39.6616667 6.21364589,45.5933333 13.7464966,45.5933333 L61.7488664,45.5933333 C70.8355631,45.5933333 78.2276291,38.435 78.2276291,29.6366667 C78.2276291,20.8383333 70.8355631,13.68 61.7488664,13.68 L61.7488664,13.68 Z M74.9131053,29.6366667 C74.9131053,36.6733333 69.0088381,42.3966667 61.7488664,42.3966667 L13.7464966,42.3966667 C8.04037087,42.3966667 3.39795181,37.8983333 3.39795181,32.3683333 C3.39795181,26.8383333 8.04037087,22.3383333 13.7464966,22.3383333 C14.1271367,22.3383333 14.5442766,22.3666667 15.057011,22.4283333 L16.7412132,22.63 L16.9098072,21.0016667 C17.9491807,11.065 26.5179288,3.57166667 36.8386642,3.57166667 C45.2822703,3.57166667 52.8603112,8.76166667 55.6968622,16.4866667 L56.2339298,17.945 L57.7599665,17.475 C59.0565762,17.0783333 60.3983761,16.8766667 61.7488664,16.8766667 C69.0088381,16.8766667 74.9131053,22.6 74.9131053,29.6366667 L74.9131053,29.6366667 Z" id="Fill-3"></path>
                        <path fill="#adabab" d="M39.4527407,79.1204762 L76.3504997,79.1204762 C77.3829209,79.1204762 78.2276291,78.3276191 78.2276291,77.3585715 C78.2276291,76.3895238 77.3829209,75.5966667 76.3504997,75.5966667 L39.4527407,75.5966667 C38.4185815,75.5966667 37.5738732,76.3895238 37.5738732,77.3585715 C37.5738732,78.3276191 38.4185815,79.1204762 39.4527407,79.1204762" id="Fill-4"></path>
                    </g>
                </g>
            </g>
        </g>
    </g>
</svg>
