<?xml version="1.0" encoding="UTF-8"?>
<svg width="55px" height="43px" viewBox="0 0 55 43" version="1.1" xmlns="http://www.w3.org/2000/svg" xmlns:xlink="http://www.w3.org/1999/xlink">
    <!-- Generator: Sketch 44.1 (41455) - http://www.bohemiancoding.com/sketch -->
    <title>Group 3</title>
    <desc>Created with Sketch.</desc>
    <defs></defs>
    <g id="Page-1" stroke="none" stroke-width="1" fill="none" fill-rule="evenodd">
        <g id="Artboard-2" transform="translate(-204.000000, -493.000000)">
            <g id="artwork" transform="translate(184.000000, 24.000000)">
                <g id="Group-3" transform="translate(20.000000, 469.000000)">
                    <path d="M21.0546875,37.2931338 L16.4609375,41.8882042" id="Line-6" stroke="#6ccbe4" stroke-width="2" stroke-linecap="round"></path>
                    <path d="M27.1796875,37.2931338 L22.5859375,41.8882042" id="Line-7" stroke="#6ccbe4" stroke-width="2" stroke-linecap="round"></path>
                    <path d="M33.3046875,37.2931338 L28.7109375,41.8882042" id="Line-8" stroke="#6ccbe4" stroke-width="2" stroke-linecap="round"></path>
                    <path d="M9.953125,33.8205045 C4.66898087,33.4551291 0.765625,29.3374616 0.765625,24.6566901 C0.765625,18.9867107 5.05039986,14.7007042 10.71875,14.7007042 C11.0617957,14.7007042 11.401816,14.7216879 11.7375548,14.7626611 C13.1071678,6.77556046 19.8813451,0.915492958 28.328125,0.915492958 C35.3052949,0.915492958 41.423236,5.64778874 43.5799054,12.4033374 C43.600132,12.4032252 43.620372,12.403169 43.640625,12.403169 C49.5604272,12.403169 54.359375,17.2034963 54.359375,23.125 C54.359375,28.789001 49.9687266,33.4272164 44.40625,33.8199008 L44.40625,33.846831 L9.953125,33.846831 L9.953125,33.8205045 Z" id="Oval-1" fill="#FFFFFF"></path>
                </g>
            </g>
        </g>
    </g>
</svg>
