<?xml version="1.0" encoding="UTF-8" standalone="no"?>
<svg width="76px" height="84px" viewBox="0 0 76 84" version="1.1" xmlns="http://www.w3.org/2000/svg" xmlns:xlink="http://www.w3.org/1999/xlink">
    <!-- Generator: Sketch 44.1 (41455) - http://www.bohemiancoding.com/sketch -->
    <title>Imported Layers Copy</title>
    <desc>Created with Sketch.</desc>
    <defs></defs>
    <g id="Page-1" stroke="none" stroke-width="1" fill="none" fill-rule="evenodd">
        <g id="Weather-@2x" transform="translate(-613.000000, -159.000000)" fill="#FFFFFF">
            <g id="Day-Time-icons" transform="translate(23.000000, 151.000000)">
                <g id="chancetstorms" transform="translate(578.000000, 0.000000)">
                    <g id="Imported-Layers-Copy" transform="translate(12.000000, 8.000000)">
                        <path d="M60.0357778,14.266 C58.9014074,14.266 57.7684444,14.3864 56.6608148,14.6272 C53.1197778,6.3938 44.8582963,0.9016 35.9184444,0.9016 C24.7633333,0.9016 15.4857037,8.7934 13.6391852,19.7512 L13.5603704,19.7512 C6.26718519,19.7512 0.332148148,25.711 0.332148148,33.0358 C0.332148148,40.3592 6.26718519,46.3176 13.5603704,46.3176 L60.0357778,46.3176 C68.8334815,46.3176 75.9915556,39.1286 75.9915556,30.2918 C75.9915556,21.455 68.8334815,14.266 60.0357778,14.266 L60.0357778,14.266 Z M72.7826667,30.2918 C72.7826667,37.359 67.0643704,43.1074 60.0357778,43.1074 L13.5603704,43.1074 C8.0362963,43.1074 3.54103704,38.5896 3.54103704,33.0358 C3.54103704,27.4806 8.0362963,22.9614 13.5603704,22.9614 C13.9291111,22.9614 14.333037,22.9894 14.8284444,23.051 L16.4596296,23.254 L16.6228889,21.6188 C17.6305926,11.6396 25.9258519,4.1132 35.9184444,4.1132 C44.0926667,4.1132 51.4308889,9.3254 54.1767407,17.0842 L54.6960741,18.5486 L56.1752593,18.0768 C57.4306667,17.6778 58.7282963,17.4762 60.0357778,17.4762 C67.0643704,17.4762 72.7826667,23.2246 72.7826667,30.2918 L72.7826667,30.2918 Z" id="Fill-1"></path>
                        <path fill="#6ccbe4" d="M13.7855556,55.1558 C15.1366667,57.61 16.4877778,60.0642 17.8388889,62.5184 C18.7804444,64.2264 21.4066667,62.7018 20.4651111,60.991 C19.114,58.5368 17.7614815,56.084 16.4103704,53.6298 C15.4702222,51.9218 12.8425926,53.4464 13.7855556,55.1558" id="Fill-2"></path>
                        <path fill="#6ccbe4" d="M59.9822963,55.1558 C61.3334074,57.61 62.6845185,60.0642 64.037037,62.5184 C64.9771852,64.2264 67.6034074,62.7018 66.6618519,60.991 C65.3107407,58.5368 63.9596296,56.084 62.6071111,53.6298 C61.666963,51.9218 59.0407407,53.4464 59.9822963,55.1558" id="Fill-3"></path>
                        <path fill="#6ccbe4" d="M56.5876296,63.2394 C57.9401481,65.6936 59.2912593,68.1478 60.6423704,70.6006 C61.5839259,72.3086 64.2101481,70.784 63.2685926,69.0746 C61.9174815,66.6204 60.5663704,64.1662 59.2138519,61.7134 C58.2737037,60.0054 55.6460741,61.53 56.5876296,63.2394" id="Fill-4"></path>
                        <path fill="#6ccbe4" d="M3.18074074,54.0596 C4.53325926,56.5124 5.88437037,58.9666 7.23548148,61.4208 C8.17703704,63.1288 10.8032593,61.6042 9.8617037,59.8934 C8.51059259,57.4406 7.15807407,54.9864 5.80696296,52.5322 C4.86681481,50.8242 2.23918519,52.3488 3.18074074,54.0596" id="Fill-5"></path>
                        <path fill="#6ccbe4" d="M13.7855556,65.5396 C15.1366667,67.9924 16.4877778,70.4466 17.8388889,72.9008 C18.7804444,74.6088 21.4066667,73.0842 20.4651111,71.3734 C19.114,68.9206 17.7614815,66.4664 16.4103704,64.0122 C15.4702222,62.3042 12.8425926,63.8288 13.7855556,65.5396" id="Fill-6"></path>
                        <polyline id="Fill-7" points="43.122963 46.1664 42.7992593 46.3176 43.1947407 46.3176 43.122963 46.1664"></polyline>
                        <polyline id="Fill-8" points="28.4521481 46.032 27.998963 46.3176 28.6351111 46.3176 28.4521481 46.032"></polyline>
                        <path fill="#f3ff14" d="M49.5322963,65.4416 L44.6359259,65.4416 C43.9871111,65.4416 43.3847407,65.7622 43.0244444,66.2998 C42.6641481,66.8374 42.598,67.515 42.8485185,68.1128 L47.4451111,79.051 L28.7237778,59.3026 L33.4104444,59.3026 C34.116963,59.3026 34.7671852,58.919 35.1077778,58.303 C35.4483704,57.6856 35.4244444,56.9338 35.0444444,56.3402 L30.4140741,49.1008 L27.5317037,49.1008 L32.5068889,56.882 L27.5767407,56.882 C26.8012593,56.882 26.1031852,57.3384 25.7963704,58.0454 C25.490963,58.7524 25.6359259,59.5714 26.1665185,60.1314 L47.5422222,82.6798 C47.925037,83.0844 48.4302963,83.293 48.944,83.293 C49.3085185,83.293 49.6758519,83.188 50.0051852,82.9752 C50.8045926,82.46 51.1071852,81.4898 50.7398519,80.6148 L45.3804444,67.8608 L50.3134074,67.8608 C50.9805185,67.8608 51.5927407,67.5262 51.9502222,66.9662 C52.3062963,66.4048 52.3499259,65.7118 52.067037,65.1154 L44.5078519,49.1008 L41.8197037,49.1008 L49.5322963,65.4416" id="Fill-9"></path>
                    </g>
                </g>
            </g>
        </g>
    </g>
</svg>
