<?xml version="1.0" encoding="UTF-8" standalone="no"?>
<svg width="99px" height="69px" viewBox="0 0 99 69" version="1.1" xmlns="http://www.w3.org/2000/svg" xmlns:xlink="http://www.w3.org/1999/xlink">
    <!-- Generator: Sketch 44.1 (41455) - http://www.bohemiancoding.com/sketch -->
    <title>Imported Layers Copy 3</title>
    <desc>Created with Sketch.</desc>
    <defs></defs>
    <g id="Page-1" stroke="none" stroke-width="1" fill="none" fill-rule="evenodd">
        <g id="Weather-@2x" transform="translate(-1473.000000, -165.000000)" fill="#ededed">
            <g id="Day-Time-icons" transform="translate(23.000000, 151.000000)">
                <g id="mostlycloudy" transform="translate(1449.000000, 0.000000)">
                    <g id="Imported-Layers-Copy-3" transform="translate(0.990099, 13.000000)">
                        <path d="M83.1072607,37.74 C82.0115512,37.74 80.9174917,37.86 79.8481848,38.095 C76.4290429,30.0233333 68.4521452,24.64 59.820132,24.64 C49.0478548,24.64 40.0907591,32.375 38.3085809,43.1183333 L38.2326733,43.1183333 C31.189769,43.1183333 25.4587459,48.9616667 25.4587459,56.1416667 C25.4587459,63.3216667 31.189769,69.1633333 38.2326733,69.1633333 L83.1072607,69.1633333 C91.6023102,69.1633333 98.5132013,62.115 98.5132013,53.4516667 C98.5132013,44.7883333 91.6023102,37.74 83.1072607,37.74 L83.1072607,37.74 Z M95.4141914,53.4516667 C95.4141914,60.38 89.8927393,66.015 83.1072607,66.015 L38.2326733,66.015 C32.8976898,66.015 28.5577558,61.5866667 28.5577558,56.1416667 C28.5577558,50.6966667 32.8976898,46.265 38.2326733,46.265 C38.5891089,46.265 38.9768977,46.2933333 39.4570957,46.3533333 L41.0313531,46.5533333 L41.189769,44.95 C42.1617162,35.165 50.1716172,27.7866667 59.820132,27.7866667 C67.7128713,27.7866667 74.7986799,32.8966667 77.4488449,40.5033333 L77.950495,41.9383333 L79.3778878,41.4766667 C80.5907591,41.0866667 81.8448845,40.8883333 83.1072607,40.8883333 C89.8927393,40.8883333 95.4141914,46.5233333 95.4141914,53.4516667 L95.4141914,53.4516667 Z" id="Fill-1"></path>
                        <path fill="#f3ff14" d="M20.2871287,22.2683333 C20.8547855,22.895 21.8267327,22.9383333 22.4471947,22.365 C23.0676568,21.79 23.1105611,20.8083333 22.5429043,20.1816667 L13.4042904,10.1016667 C12.8366337,9.475 11.8630363,9.43166667 11.2442244,10.0066667 C10.6237624,10.58 10.5808581,11.5616667 11.1485149,12.1883333 L20.2871287,22.2683333" id="Fill-2"></path>
                        <path fill="#f3ff14" d="M19.5957096,47.56 L9.830033,57.0216667 C9.22277228,57.61 9.20132013,58.5916667 9.78382838,59.205 C10.3663366,59.8183333 11.339934,59.8383333 11.9471947,59.25 L21.7128713,49.79 C22.3184818,49.2016667 22.339934,48.2183333 21.7574257,47.605 C21.1749175,46.9933333 20.2013201,46.9716667 19.5957096,47.56" id="Fill-3"></path>
                        <path fill="#f3ff14" d="M35.5148515,17.8266667 C36.3547855,17.88 37.0841584,17.23 37.1369637,16.3833333 L37.9867987,2.74166667 C38.039604,1.89333333 37.3960396,1.15666667 36.5577558,1.10333333 C35.7178218,1.05 34.9884488,1.7 34.9356436,2.54833333 L34.0858086,16.1883333 C34.0330033,17.0366667 34.6765677,17.7733333 35.5148515,17.8266667" id="Fill-4"></path>
                        <path fill="#f3ff14" d="M17.0709571,34.1666667 L17.0709571,34.1666667 C17.1369637,33.32 16.5033003,32.5733333 15.6650165,32.5066667 L2.17326733,31.45 C1.3349835,31.3833333 0.595709571,32.0233333 0.52970297,32.87 C0.465346535,33.7166667 1.09735974,34.4633333 1.93729373,34.53 L15.4290429,35.5866667 C16.2673267,35.6533333 17.0066007,35.0133333 17.0709571,34.1666667" id="Fill-5"></path>
                        <path fill="#f3ff14" d="M40.9405941,23.1266667 C39.2145215,22.1633333 37.2689769,21.2966667 35.1765677,21.14 C27.3811881,20.5533333 20.5660066,26.4833333 19.9867987,34.3566667 C19.6122112,39.4433333 21.9389439,44.1066667 25.7293729,46.935 C26.1435644,46.1933333 26.7013201,45.3816667 27.4455446,44.5833333 C24.4290429,42.3316667 22.5759076,38.6216667 22.8745875,34.5733333 C23.3366337,28.3083333 28.7590759,23.59 34.960396,24.0566667 C36.1765677,24.1483333 35.8465347,23.8333333 36.9158416,24.2783333 L37.330033,24.4366667 C37.330033,24.4366667 38.630363,23.0883333 40.9405941,23.1266667" id="Fill-6"></path>
                        <path d="M90.6864686,33.175 C90.6864686,26.2383333 85.1534653,20.595 78.3514851,20.595 C77.4735974,20.595 76.5973597,20.69 75.7409241,20.8783333 C73.0049505,14.415 66.6171617,10.1033333 59.7046205,10.1033333 C51.0808581,10.1033333 43.9075908,16.2983333 42.480198,24.9 L42.4191419,24.9 C36.7805281,24.9 32.1914191,29.5783333 32.1914191,35.3283333 C32.1914191,37.045 32.6122112,38.6566667 33.3366337,40.0833333 C33.9158416,39.7933333 34.7277228,39.5033333 35.7739274,39.3366667 C35.0858086,38.16 34.6732673,36.7966667 34.6732673,35.3283333 C34.6732673,30.9683333 38.1485149,27.42 42.4191419,27.42 C42.7046205,27.42 43.0165017,27.4433333 43.3993399,27.4916667 L44.660066,27.65 L44.7871287,26.3666667 C45.5660066,18.5333333 51.9785479,12.625 59.7046205,12.625 C66.0247525,12.625 71.6980198,16.7166667 73.8217822,22.8066667 L74.2227723,23.9566667 L75.3663366,23.5866667 C76.3366337,23.2733333 77.339934,23.115 78.3514851,23.115 C83.7854785,23.115 88.2062706,27.6283333 88.2062706,33.175 C88.2062706,33.74 88.1518152,34.2916667 88.0627063,34.8316667 C88.7442244,34.9933333 89.5973597,35.275 90.4141914,35.75 C90.5858086,34.9183333 90.6864686,34.0583333 90.6864686,33.175" id="Fill-7"></path>
                    </g>
                </g>
            </g>
        </g>
    </g>
</svg>
