<?xml version="1.0" encoding="UTF-8" standalone="no"?>
<svg width="95px" height="69px" viewBox="0 0 95 69" version="1.1" xmlns="http://www.w3.org/2000/svg" xmlns:xlink="http://www.w3.org/1999/xlink">
    <!-- Generator: Sketch 44.1 (41455) - http://www.bohemiancoding.com/sketch -->
    <title>Imported Layers</title>
    <desc>Created with Sketch.</desc>
    <defs></defs>
    <g id="Page-1" stroke="none" stroke-width="1" fill="none" fill-rule="evenodd">
        <g id="Weather-@2x" transform="translate(-1621.000000, -166.000000)" fill="#ededed">
            <g id="Day-Time-icons" transform="translate(23.000000, 151.000000)">
                <g id="mostlysunny" transform="translate(1595.000000, 0.000000)">
                    <g id="Rectangle-1-+-Imported-Layers">
                        <g id="Imported-Layers" transform="translate(3.000000, 15.000000)">
                            <path d="M79.7017241,39.7437209 C78.6796552,39.7437209 77.6592241,39.8527907 76.6617241,40.0693023 C73.4710345,32.6590698 66.0282759,27.7151163 57.974569,27.7151163 C47.9242241,27.7151163 39.5675,34.8176744 37.9033621,44.6811628 L37.832931,44.6811628 C31.2615517,44.6811628 25.9153448,50.0451163 25.9153448,56.6397674 C25.9153448,63.2311628 31.2615517,68.5934884 37.832931,68.5934884 L79.7017241,68.5934884 C87.6276724,68.5934884 94.0762069,62.1225581 94.0762069,54.1686047 C94.0762069,46.2146512 87.6276724,39.7437209 79.7017241,39.7437209 L79.7017241,39.7437209 Z M91.1852586,54.1686047 C91.1852586,60.5288372 86.0339655,65.7039535 79.7017241,65.7039535 L37.832931,65.7039535 C32.8552586,65.7039535 28.8062931,61.6374419 28.8062931,56.6397674 C28.8062931,51.6388372 32.8552586,47.5706977 37.832931,47.5706977 C38.165431,47.5706977 38.5290517,47.5967442 38.9762069,47.652093 L40.445431,47.8344186 L40.5928448,46.3627907 C41.4986207,37.38 48.9725,30.6062791 57.974569,30.6062791 C65.3387069,30.6062791 71.9493966,35.2962791 74.4243103,42.28 L74.8911207,43.5986047 L76.2227586,43.1737209 C77.354569,42.8155814 78.5240517,42.6348837 79.7017241,42.6348837 C86.0339655,42.6348837 91.1852586,47.8083721 91.1852586,54.1686047 L91.1852586,54.1686047 Z" id="Fill-1"></path>
                            <path fill="#f3ff14" d="M20.7558621,21.2816279 C21.3275,21.9197674 22.3200862,21.9783721 22.9621552,21.4118605 C23.6058621,20.8437209 23.6648276,19.8572093 23.0931897,19.2190698 L13.9093103,8.93883721 C13.3393103,8.30069767 12.3467241,8.24209302 11.7030172,8.81023256 C11.0609483,9.37674419 11.0019828,10.3632558 11.5719828,11.0030233 L20.7558621,21.2816279" id="Fill-2"></path>
                            <path fill="#f3ff14" d="M19.6584483,46.7046512 L9.53275862,56.0683721 C8.9037931,56.6511628 8.86775862,57.6376744 9.4525,58.2644186 C10.0388793,58.8895349 11.0331034,58.9253488 11.662069,58.3425581 L21.7877586,48.9788372 C22.4167241,48.3976744 22.4527586,47.4095349 21.8680172,46.7844186 C21.2816379,46.1593023 20.2874138,46.1234884 19.6584483,46.7046512" id="Fill-3"></path>
                            <path fill="#f3ff14" d="M60.3200862,10.9948837 C59.7337069,10.3697674 58.7394828,10.3339535 58.1105172,10.9151163 L47.9848276,20.2788372 C47.3558621,20.8616279 47.3198276,21.8481395 47.9062069,22.4748837 C48.4909483,23.1 49.4851724,23.135814 50.1141379,22.5530233 L60.2398276,13.1893023 C60.8687931,12.6081395 60.9048276,11.62 60.3200862,10.9948837" id="Fill-4"></path>
                            <path fill="#f3ff14" d="M36.3882759,17.0506977 C37.2449138,17.1174419 38,16.4744186 38.0671552,15.6230233 L39.1465517,1.91930233 C39.2137069,1.06790698 38.5667241,0.315813953 37.7100862,0.249069767 C36.8534483,0.182325581 36.0967241,0.825348837 36.029569,1.67674419 L34.9518103,15.3804651 C34.8846552,16.2334884 35.53,16.9839535 36.3882759,17.0506977" id="Fill-5"></path>
                            <path fill="#f3ff14" d="M17.2867241,33.1962791 L17.2867241,33.1962791 C17.3653448,32.3465116 16.7298276,31.5862791 15.8748276,31.5065116 L2.10310345,30.2334884 C1.24646552,30.1553488 0.481551724,30.7853488 0.402931034,31.6367442 C0.322672414,32.4881395 0.958189655,33.2483721 1.81318966,33.3265116 L15.5849138,34.5995349 C16.4415517,34.6793023 17.2064655,34.0476744 17.2867241,33.1962791" id="Fill-6"></path>
                            <path fill="#f3ff14" d="M23.2111207,33.6960465 C23.7794828,27.4025581 29.3926724,22.7418605 35.7249138,23.3067442 C38.9237931,23.5932558 41.7000862,25.1593023 43.5935345,27.4497674 C44.2831034,26.775814 45.0349138,26.1344186 45.8506034,25.5451163 C43.4706897,22.6865116 39.9917241,20.7330233 35.9886207,20.3765116 C28.0315517,19.6667442 20.9769828,25.5239535 20.2628448,33.4323256 C19.8009483,38.5439535 22.1071552,43.2681395 25.9382759,46.1706977 C26.3706897,45.4316279 26.9537931,44.624186 27.7285345,43.8330233 C24.6803448,41.5230233 22.8442241,37.7625581 23.2111207,33.6960465" id="Fill-7"></path>
                        </g>
                    </g>
                </g>
            </g>
        </g>
    </g>
</svg>
