<?xml version="1.0" encoding="UTF-8" standalone="no"?>
<svg width="76px" height="75px" viewBox="0 0 76 75" version="1.1" xmlns="http://www.w3.org/2000/svg" xmlns:xlink="http://www.w3.org/1999/xlink">
    <!-- Generator: Sketch 44.1 (41455) - http://www.bohemiancoding.com/sketch -->
    <title>Imported Layers Copy 4</title>
    <desc>Created with Sketch.</desc>
    <defs></defs>
    <g id="Page-1" stroke="none" stroke-width="1" fill="none" fill-rule="evenodd">
        <g id="Weather-@2x" transform="translate(-178.000000, -298.000000)" fill="#FFFFFF">
            <g id="Day-Time-icons" transform="translate(23.000000, 151.000000)">
                <g id="sleet" transform="translate(146.000000, 134.000000)">
                    <g id="Imported-Layers-Copy-4" transform="translate(9.000000, 12.000000)">
                        <path d="M60.053,14.736963 C58.9246,14.736963 57.7976,14.8594074 56.6958,15.1014815 C53.1734,6.82451852 44.9554,1.30325926 36.0626,1.30325926 C24.9648,1.30325926 15.7374,9.23540741 13.9006,20.2525926 C13.874,20.2511852 13.8488,20.2511852 13.8222,20.2511852 C6.566,20.2511852 0.6636,26.2425185 0.6636,33.6060741 C0.6636,40.9696296 6.566,46.9595556 13.8222,46.9595556 L60.053,46.9595556 C68.8044,46.9595556 75.9248,39.7311111 75.9248,30.8475556 C75.9248,21.9654074 68.8044,14.736963 60.053,14.736963 L60.053,14.736963 Z M72.7328,30.8475556 C72.7328,37.9521481 67.0446,43.730963 60.053,43.730963 L13.8222,43.730963 C8.3258,43.730963 3.8556,39.1892593 3.8556,33.6060741 C3.8556,28.0214815 8.3258,23.4783704 13.8222,23.4783704 C14.189,23.4783704 14.5894,23.5079259 15.0836,23.5698519 L16.7062,23.7739259 L16.8686,22.1300741 C17.871,12.0966667 26.1212,4.53044444 36.0626,4.53044444 C44.1938,4.53044444 51.4934,9.77022222 54.2248,17.5700741 L54.7414,19.0422222 L56.2114,18.5679259 C57.4602,18.1682222 58.7524,17.9655556 60.053,17.9655556 C67.0446,17.9655556 72.7328,23.7443704 72.7328,30.8475556 L72.7328,30.8475556 Z" id="Fill-1"></path>
                        <path d="M44.4374,56.1935556 C44.4374,57.8725926 43.0822,59.234963 41.412,59.234963 C39.7418,59.234963 38.3866,57.8725926 38.3866,56.1935556 C38.3866,54.5145185 39.7418,53.1521481 41.412,53.1521481 C43.0822,53.1521481 44.4374,54.5145185 44.4374,56.1935556" id="Fill-2"></path>
                        <path d="M50.4868,70.7897778 C50.4868,72.4702222 49.133,73.8311852 47.4628,73.8311852 C45.7912,73.8311852 44.4374,72.4702222 44.4374,70.7897778 C44.4374,69.1107407 45.7912,67.7497778 47.4628,67.7497778 C49.133,67.7497778 50.4868,69.1107407 50.4868,70.7897778" id="Fill-3"></path>
                        <path d="M65.3548,56.1935556 C65.3548,57.8725926 64.001,59.234963 62.3294,59.234963 C60.6592,59.234963 59.3054,57.8725926 59.3054,56.1935556 C59.3054,54.5145185 60.6592,53.1521481 62.3294,53.1521481 C64.001,53.1521481 65.3548,54.5145185 65.3548,56.1935556" id="Fill-4"></path>
                        <path d="M70.1946,70.7897778 C70.1946,72.4702222 68.8408,73.8311852 67.1692,73.8311852 C65.499,73.8311852 64.1452,72.4702222 64.1452,70.7897778 C64.1452,69.1107407 65.499,67.7497778 67.1692,67.7497778 C68.8408,67.7497778 70.1946,69.1107407 70.1946,70.7897778" id="Fill-5"></path>
                        <path d="M25.4604,57.5122963 C25.4604,59.1913333 24.1052,60.5537037 22.435,60.5537037 C20.7648,60.5537037 19.4096,59.1913333 19.4096,57.5122963 C19.4096,55.8332593 20.7648,54.4708889 22.435,54.4708889 C24.1052,54.4708889 25.4604,55.8332593 25.4604,57.5122963" id="Fill-6"></path>
                        <path d="M31.5098,72.1085185 C31.5098,73.7875556 30.156,75.1499259 28.4844,75.1499259 C26.8142,75.1499259 25.4604,73.7875556 25.4604,72.1085185 C25.4604,70.4294815 26.8142,69.0685185 28.4844,69.0685185 C30.156,69.0685185 31.5098,70.4294815 31.5098,72.1085185" id="Fill-7"></path>
                    </g>
                </g>
            </g>
        </g>
    </g>
</svg>