<?xml version="1.0" encoding="UTF-8"?>
<svg width="41px" height="42px" viewBox="0 0 41 42" version="1.1" xmlns="http://www.w3.org/2000/svg" xmlns:xlink="http://www.w3.org/1999/xlink">
    <!-- Generator: Sketch 44.1 (41455) - http://www.bohemiancoding.com/sketch -->
    <title>Oval 23 + Group</title>
    <desc>Created with Sketch.</desc>
    <defs></defs>
    <g id="Page-1" stroke="none" stroke-width="1" fill="none" fill-rule="evenodd">
        <g id="Artboard-2" transform="translate(-551.000000, -493.000000)">
            <g id="artwork" transform="translate(184.000000, 24.000000)">
                <g id="Oval-23-+-Group" transform="translate(367.593750, 469.915493)">
                    <ellipse id="Oval-23" fill="#f3ff14" cx="19.90625" cy="19.9119718" rx="12.25" ry="12.2535211"></ellipse>
                    <g id="Group" stroke="#f3ff14" stroke-width="2" stroke-linecap="round">
                        <path d="M19.90625,0.382922535 L19.90625,4.97799296" id="Line"></path>
                        <path d="M19.90625,34.8459507 L19.90625,39.4410211" id="Line-4"></path>
                        <g id="Line-9-+-Line-5" transform="translate(19.906250, 19.911972) rotate(-270.000000) translate(-19.906250, -19.911972) translate(19.140625, 0.000000)">
                            <path d="M0.765625,0.382922535 L0.765625,4.97799296" id="Line-9"></path>
                            <path d="M0.765625,34.8459507 L0.765625,39.4410211" id="Line-5"></path>
                        </g>
                        <g id="Line-9-+-Line-6" transform="translate(19.906250, 19.911972) rotate(-225.000000) translate(-19.906250, -19.911972) translate(19.140625, 0.000000)">
                            <path d="M0.765625,0.382922535 L0.765625,4.97799296" id="Line-9"></path>
                            <path d="M0.765625,34.8459507 L0.765625,39.4410211" id="Line-5"></path>
                        </g>
                        <g id="Line-9-+-Line-7" transform="translate(19.906250, 19.911972) rotate(-135.000000) translate(-19.906250, -19.911972) translate(19.140625, 0.000000)">
                            <path d="M0.765625,0.382922535 L0.765625,4.97799296" id="Line-9"></path>
                            <path d="M0.765625,34.8459507 L0.765625,39.4410211" id="Line-5"></path>
                        </g>
                    </g>
                </g>
            </g>
        </g>
    </g>
</svg>
